<svg width="37" height="37" viewBox="0 0 37 37" fill="none" xmlns="http://www.w3.org/2000/svg">
<g clip-path="url(#clip0_14_319)">
<path d="M18.5 37C28.7173 37 37 28.7173 37 18.5C37 8.28273 28.7173 0 18.5 0C8.28273 0 0 8.28273 0 18.5C0 28.7173 8.28273 37 18.5 37Z" fill="#4F4F4F"/>
<path d="M22.3734 21.7664C21.7953 21.6797 21.3906 21.2172 21.3906 20.6391V18.9625C21.9977 18.2977 22.4023 17.4305 22.4891 16.4477L22.5469 15.5227C22.8648 15.3492 23.1828 14.9445 23.3273 14.4242C23.5297 13.7016 23.3562 13.0656 22.8937 13.0078C22.8359 13.0078 22.7781 13.0078 22.6914 13.0078L22.807 11.3023C23.0094 8.93203 21.1883 6.9375 18.8758 6.9375H18.1531C15.8406 6.9375 14.0195 8.93203 14.1641 11.3023L14.2797 13.0367C14.2219 13.0078 14.1641 13.0078 14.1062 13.0078C13.6437 13.0656 13.4703 13.7016 13.6727 14.4242C13.8172 14.9734 14.1641 15.3781 14.482 15.5516L14.5398 16.4477C14.5977 17.4305 15.0023 18.2977 15.6094 18.9625V20.6391C15.6094 21.2172 15.2047 21.6797 14.6266 21.7664C12.0828 22.2 7.80469 24.05 7.80469 26.0156V30.0625H29.1953V26.0156C29.1953 24.05 24.9172 22.2 22.3734 21.7664Z" fill="white"/>
</g>
<defs>
<clipPath id="clip0_14_319">
<rect width="37" height="37" fill="white"/>
</clipPath>
</defs>
</svg>
