<svg width="37" height="37" viewBox="0 0 37 37" fill="none" xmlns="http://www.w3.org/2000/svg">
<g clip-path="url(#clip0_14_348)">
<path d="M11.1 29.6C9.065 29.6 7.4 31.265 7.4 33.3C7.4 35.335 9.065 37 11.1 37C13.135 37 14.8 35.335 14.8 33.3C14.8 31.265 13.135 29.6 11.1 29.6ZM0 0V3.7H3.7L10.36 17.76L7.77 22.2C7.585 22.755 7.4 23.495 7.4 24.05C7.4 26.085 9.065 27.75 11.1 27.75H33.3V24.05H11.84C11.655 24.05 11.47 23.865 11.47 23.68V23.4949L13.135 20.3499H26.825C28.305 20.3499 29.415 19.6099 29.97 18.4999L36.63 6.475C37 6.105 37 5.92 37 5.55C37 4.44 36.26 3.7 35.15 3.7H7.77L6.105 0H0ZM29.6 29.6C27.565 29.6 25.9 31.265 25.9 33.3C25.9 35.335 27.565 37 29.6 37C31.635 37 33.3 35.335 33.3 33.3C33.3 31.265 31.635 29.6 29.6 29.6Z" fill="black"/>
</g>
<defs>
<clipPath id="clip0_14_348">
<rect width="37" height="37" fill="white"/>
</clipPath>
</defs>
</svg>
